<?xml version="1.0" encoding="UTF-8" standalone="no"?>
<!DOCTYPE svg PUBLIC "-//W3C//DTD SVG 1.0//EN" "http://www.w3.org/TR/2001/PR-SVG-20010719/DTD/svg10.dtd">
<svg width="65cm" height="18cm" viewBox="17 23 1285 358" xmlns="http://www.w3.org/2000/svg" xmlns:xlink="http://www.w3.org/1999/xlink">
  <g>
    <rect style="fill: #ffffff" x="548" y="130" width="74.2" height="36"/>
    <rect style="fill: none; fill-opacity:0; stroke-width: 2; stroke: #000000" x="548" y="130" width="74.2" height="36"/>
    <text font-size="12.8" style="fill: #000000;text-anchor:middle;font-family:monospace;font-style:normal;font-weight:normal" x="585.1" y="151.2">Device</text>
  </g>
  <g>
    <rect style="fill: #ffffff" x="198" y="117" width="58.8" height="36"/>
    <rect style="fill: none; fill-opacity:0; stroke-width: 2; stroke: #000000" x="198" y="117" width="58.8" height="36"/>
    <text font-size="12.8" style="fill: #000000;text-anchor:middle;font-family:monospace;font-style:normal;font-weight:normal" x="227.4" y="138.2">User</text>
  </g>
  <line style="fill: none; fill-opacity:0; stroke-width: 2; stroke: #000000" x1="235.71" y1="153.994" x2="303" y2="307.79"/>
  <g>
    <ellipse style="fill: #ffffff" cx="81.35" cy="208" rx="62.35" ry="18"/>
    <ellipse style="fill: none; fill-opacity:0; stroke-width: 2; stroke: #000000" cx="81.35" cy="208" rx="62.35" ry="18"/>
    <text font-size="12.8" style="fill: #000000;text-anchor:middle;font-family:monospace;font-style:normal;font-weight:normal" x="81.35" y="211.2">Employee_No</text>
    <line style="fill: none; fill-opacity:0; stroke-width: 2; stroke: #000000" x1="39" y1="216" x2="123.7" y2="216"/>
  </g>
  <g>
    <ellipse style="fill: #ffffff" cx="118.15" cy="74.4" rx="54.65" ry="18"/>
    <ellipse style="fill: none; fill-opacity:0; stroke-width: 2; stroke: #000000" cx="118.15" cy="74.4" rx="54.65" ry="18"/>
    <text font-size="12.8" style="fill: #000000;text-anchor:middle;font-family:monospace;font-style:normal;font-weight:normal" x="118.15" y="77.6">Last_Name</text>
  </g>
  <g>
    <ellipse style="fill: #ffffff" cx="271.5" cy="51.8" rx="58.5" ry="18"/>
    <ellipse style="fill: none; fill-opacity:0; stroke-width: 2; stroke: #000000" cx="271.5" cy="51.8" rx="58.5" ry="18"/>
    <text font-size="12.8" style="fill: #000000;text-anchor:middle;font-family:monospace;font-style:normal;font-weight:normal" x="271.5" y="55">First_Name</text>
  </g>
  <g>
    <ellipse style="fill: #ffffff" cx="558.9" cy="45.2" rx="35.4" ry="18"/>
    <ellipse style="fill: none; fill-opacity:0; stroke-width: 2; stroke: #000000" cx="558.9" cy="45.2" rx="35.4" ry="18"/>
    <text font-size="12.8" style="fill: #000000;text-anchor:middle;font-family:monospace;font-style:normal;font-weight:normal" x="558.9" y="48.4">Type</text>
  </g>
  <g>
    <ellipse style="fill: #ffffff" cx="1251.4" cy="57.6" rx="35.4" ry="18"/>
    <ellipse style="fill: none; fill-opacity:0; stroke-width: 2; stroke: #000000" cx="1251.4" cy="57.6" rx="35.4" ry="18"/>
    <text font-size="12.8" style="fill: #000000;text-anchor:middle;font-family:monospace;font-style:normal;font-weight:normal" x="1251.4" y="60.8">City</text>
  </g>
  <g>
    <rect style="fill: #ffffff" x="1044.5" y="126.4" width="89.6" height="36"/>
    <rect style="fill: none; fill-opacity:0; stroke-width: 2; stroke: #000000" x="1044.5" y="126.4" width="89.6" height="36"/>
    <text font-size="12.8" style="fill: #000000;text-anchor:middle;font-family:monospace;font-style:normal;font-weight:normal" x="1089.3" y="147.6">Location</text>
  </g>
  <line style="fill: none; fill-opacity:0; stroke-width: 2; stroke: #000000" x1="622.2" y1="166" x2="762" y2="319.955"/>
  <g>
    <ellipse style="fill: #ffffff" cx="1016.95" cy="74.8" rx="46.95" ry="18"/>
    <ellipse style="fill: none; fill-opacity:0; stroke-width: 2; stroke: #000000" cx="1016.95" cy="74.8" rx="46.95" ry="18"/>
    <text font-size="12.8" style="fill: #000000;text-anchor:middle;font-family:monospace;font-style:normal;font-weight:normal" x="1016.95" y="78">Room_No</text>
  </g>
  <g>
    <ellipse style="fill: #ffffff" cx="961.6" cy="127.4" rx="43.1" ry="18"/>
    <ellipse style="fill: none; fill-opacity:0; stroke-width: 2; stroke: #000000" cx="961.6" cy="127.4" rx="43.1" ry="18"/>
    <text font-size="12.8" style="fill: #000000;text-anchor:middle;font-family:monospace;font-style:normal;font-weight:normal" x="961.6" y="130.6">Street</text>
  </g>
  <g>
    <ellipse style="fill: #ffffff" cx="1239.35" cy="203.8" rx="62.35" ry="18"/>
    <ellipse style="fill: none; fill-opacity:0; stroke-width: 2; stroke: #000000" cx="1239.35" cy="203.8" rx="62.35" ry="18"/>
    <text font-size="12.8" style="fill: #000000;text-anchor:middle;font-family:monospace;font-style:normal;font-weight:normal" x="1239.35" y="207">Postal_Code</text>
  </g>
  <g>
    <ellipse style="fill: #ffffff" cx="425.15" cy="130.4" rx="54.65" ry="18"/>
    <ellipse style="fill: none; fill-opacity:0; stroke-width: 2; stroke: #000000" cx="425.15" cy="130.4" rx="54.65" ry="18"/>
    <text font-size="12.8" style="fill: #000000;text-anchor:middle;font-family:monospace;font-style:normal;font-weight:normal" x="425.15" y="133.6">Id_Device</text>
    <line style="fill: none; fill-opacity:0; stroke-width: 2; stroke: #000000" x1="390.5" y1="138.4" x2="459.8" y2="138.4"/>
  </g>
  <g>
    <ellipse style="fill: #ffffff" cx="694.1" cy="45.4" rx="81.6" ry="18"/>
    <ellipse style="fill: none; fill-opacity:0; stroke-width: 2; stroke: #000000" cx="694.1" cy="45.4" rx="81.6" ry="18"/>
    <text font-size="12.8" style="fill: #000000;text-anchor:middle;font-family:monospace;font-style:normal;font-weight:normal" x="694.1" y="48.6">Last_Maintenance</text>
  </g>
  <line style="fill: none; fill-opacity:0; stroke-width: 2; stroke: #000000" x1="198" y1="117" x2="118.15" y2="92.4"/>
  <line style="fill: none; fill-opacity:0; stroke-width: 2; stroke: #000000" x1="227.4" y1="153" x2="81.35" y2="190"/>
  <line style="fill: none; fill-opacity:0; stroke-width: 2; stroke: #000000" x1="271.5" y1="69.8" x2="227.4" y2="117"/>
  <line style="fill: none; fill-opacity:0; stroke-width: 2; stroke: #000000" x1="694.1" y1="63.4" x2="622.2" y2="130"/>
  <line style="fill: none; fill-opacity:0; stroke-width: 2; stroke: #000000" x1="558.9" y1="63.2" x2="585.1" y2="130"/>
  <line style="fill: none; fill-opacity:0; stroke-width: 2; stroke: #000000" x1="479.8" y1="130.4" x2="548" y2="130"/>
  <line style="fill: none; fill-opacity:0; stroke-width: 2; stroke: #000000" x1="1216" y1="57.6" x2="1134.1" y2="126.4"/>
  <line style="fill: none; fill-opacity:0; stroke-width: 2; stroke: #000000" x1="1195.26" y1="191.072" x2="1134.1" y2="162.4"/>
  <line style="fill: none; fill-opacity:0; stroke-width: 2; stroke: #000000" x1="1004.7" y1="127.4" x2="1044.5" y2="144.4"/>
  <line style="fill: none; fill-opacity:0; stroke-width: 2; stroke: #000000" x1="1089.3" y1="126.4" x2="1063.9" y2="74.8"/>
  <g>
    <ellipse style="fill: #ffffff" cx="1125.85" cy="42.4" rx="62.35" ry="18"/>
    <ellipse style="fill: none; fill-opacity:0; stroke-width: 2; stroke: #000000" cx="1125.85" cy="42.4" rx="62.35" ry="18"/>
    <text font-size="12.8" style="fill: #000000;text-anchor:middle;font-family:monospace;font-style:normal;font-weight:normal" x="1125.85" y="45.6">Id_Location</text>
    <line style="fill: none; fill-opacity:0; stroke-width: 2; stroke: #000000" x1="1083.5" y1="50.4" x2="1168.2" y2="50.4"/>
  </g>
  <line style="fill: none; fill-opacity:0; stroke-width: 2; stroke: #000000" x1="1125.85" y1="60.4" x2="1089.3" y2="126.4"/>
  <g>
    <ellipse style="fill: #ffffff" cx="853.1" cy="75.4" rx="81.6" ry="18"/>
    <ellipse style="fill: none; fill-opacity:0; stroke-width: 2; stroke: #000000" cx="853.1" cy="75.4" rx="81.6" ry="18"/>
    <text font-size="12.8" style="fill: #000000;text-anchor:middle;font-family:monospace;font-style:normal;font-weight:normal" x="853.1" y="78.6">Next_Maintenance</text>
  </g>
  <line style="fill: none; fill-opacity:0; stroke-width: 2; stroke: #000000" x1="795.4" y1="88.1279" x2="622.2" y2="148"/>
  <g>
    <ellipse style="fill: #ffffff" cx="395.3" cy="62.4" rx="50.8" ry="18"/>
    <ellipse style="fill: none; fill-opacity:0; stroke-width: 2; stroke: #000000" cx="395.3" cy="62.4" rx="50.8" ry="18"/>
    <text font-size="12.8" style="fill: #000000;text-anchor:middle;font-family:monospace;font-style:normal;font-weight:normal" x="395.3" y="65.6">passwort</text>
  </g>
  <line style="fill: none; fill-opacity:0; stroke-width: 2; stroke: #000000" x1="344.5" y1="62.4" x2="256.8" y2="117"/>
  <g>
    <ellipse style="fill: #ffffff" cx="58.25" cy="145.8" rx="39.25" ry="18"/>
    <ellipse style="fill: none; fill-opacity:0; stroke-width: 2; stroke: #000000" cx="58.25" cy="145.8" rx="39.25" ry="18"/>
    <text font-size="12.8" style="fill: #000000;text-anchor:middle;font-family:monospace;font-style:normal;font-weight:normal" x="58.25" y="149">EMail</text>
  </g>
  <line style="fill: none; fill-opacity:0; stroke-width: 2; stroke: #000000" x1="97.5" y1="145.8" x2="198" y2="135"/>
  <g>
    <polygon style="fill: #ffffff" points="303,307.79 357.65,275 412.3,307.79 357.65,340.58 "/>
    <polygon style="fill: none; fill-opacity:0; stroke-width: 2; stroke: #000000" points="303,307.79 357.65,275 412.3,307.79 357.65,340.58 "/>
    <text font-size="12.7998" style="fill: #000000;text-anchor:end;font-family:monospace;font-style:normal;font-weight:normal" x="297" y="301.79"></text>
    <text font-size="12.7998" style="fill: #000000;text-anchor:start;font-family:monospace;font-style:normal;font-weight:normal" x="418.3" y="301.79"></text>
    <text font-size="12.7998" style="fill: #000000;text-anchor:middle;font-family:monospace;font-style:normal;font-weight:normal" x="357.65" y="311.79">maintains</text>
  </g>
  <line style="fill: none; fill-opacity:0; stroke-width: 2; stroke: #000000" x1="412.3" y1="307.79" x2="548" y2="148"/>
  <g>
    <polygon style="fill: #ffffff" points="762,319.955 861.925,260 961.85,319.955 861.925,379.91 "/>
    <polygon style="fill: none; fill-opacity:0; stroke-width: 2; stroke: #000000" points="762,319.955 861.925,260 961.85,319.955 861.925,379.91 "/>
    <text font-size="11.5596" style="fill: #000000;text-anchor:end;font-family:monospace;font-style:normal;font-weight:normal" x="756" y="313.955"></text>
    <text font-size="11.5596" style="fill: #000000;text-anchor:start;font-family:monospace;font-style:normal;font-weight:normal" x="967.85" y="313.955"></text>
    <text font-size="11.5596" style="fill: #000000;text-anchor:middle;font-family:monospace;font-style:normal;font-weight:normal" x="861.925" y="323.567">is located / has device</text>
  </g>
  <line style="fill: none; fill-opacity:0; stroke-width: 2; stroke: #000000" x1="961.85" y1="319.955" x2="1089.3" y2="162.4"/>
  <text font-size="17.4298" style="fill: #000000;text-anchor:start;font-family:sans-serif;font-style:normal;font-weight:normal" x="528" y="154">
    <tspan x="528" y="154">n</tspan>
  </text>
  <text font-size="17.1476" style="fill: #000000;text-anchor:start;font-family:sans-serif;font-style:normal;font-weight:normal" x="253" y="175">
    <tspan x="253" y="175">1</tspan>
  </text>
  <text font-size="17.1476" style="fill: #000000;text-anchor:start;font-family:sans-serif;font-style:normal;font-weight:normal" x="1056" y="187">
    <tspan x="1056" y="187">1</tspan>
  </text>
  <text font-size="17.4298" style="fill: #000000;text-anchor:start;font-family:sans-serif;font-style:normal;font-weight:normal" x="636" y="173">
    <tspan x="636" y="173">n</tspan>
  </text>
</svg>
