<?xml version="1.0" encoding="UTF-8" standalone="no"?>
<!DOCTYPE svg PUBLIC "-//W3C//DTD SVG 1.0//EN" "http://www.w3.org/TR/2001/PR-SVG-20010719/DTD/svg10.dtd">
<svg width="43cm" height="23cm" viewBox="75 86 848 443" xmlns="http://www.w3.org/2000/svg" xmlns:xlink="http://www.w3.org/1999/xlink">
  <g>
    <rect style="fill: #ffffff" x="511" y="190" width="74.2" height="36"/>
    <rect style="fill: none; fill-opacity:0; stroke-width: 2; stroke: #000000" x="511" y="190" width="74.2" height="36"/>
    <text font-size="12.8" style="fill: #000000;text-anchor:middle;font-family:monospace;font-style:normal;font-weight:normal" x="548.1" y="211.2">Device</text>
  </g>
  <g>
    <rect style="fill: #ffffff" x="211" y="267" width="58.8" height="36"/>
    <rect style="fill: none; fill-opacity:0; stroke-width: 2; stroke: #000000" x="211" y="267" width="58.8" height="36"/>
    <text font-size="12.8" style="fill: #000000;text-anchor:middle;font-family:monospace;font-style:normal;font-weight:normal" x="240.4" y="288.2">User</text>
  </g>
  <line style="fill: none; fill-opacity:0; stroke-width: 2; stroke: #000000" x1="270.798" y1="276.35" x2="511" y2="208"/>
  <g>
    <ellipse style="fill: #ffffff" cx="157.35" cy="369" rx="62.35" ry="18"/>
    <ellipse style="fill: none; fill-opacity:0; stroke-width: 2; stroke: #000000" cx="157.35" cy="369" rx="62.35" ry="18"/>
    <text font-size="12.8" style="fill: #000000;text-anchor:middle;font-family:monospace;font-style:normal;font-weight:normal" x="157.35" y="372.2">Employee_No</text>
    <line style="fill: none; fill-opacity:0; stroke-width: 2; stroke: #000000" x1="115" y1="377" x2="199.7" y2="377"/>
  </g>
  <g>
    <ellipse style="fill: #ffffff" cx="131.15" cy="224.4" rx="54.65" ry="18"/>
    <ellipse style="fill: none; fill-opacity:0; stroke-width: 2; stroke: #000000" cx="131.15" cy="224.4" rx="54.65" ry="18"/>
    <text font-size="12.8" style="fill: #000000;text-anchor:middle;font-family:monospace;font-style:normal;font-weight:normal" x="131.15" y="227.6">Last_Name</text>
  </g>
  <g>
    <ellipse style="fill: #ffffff" cx="284.5" cy="201.8" rx="58.5" ry="18"/>
    <ellipse style="fill: none; fill-opacity:0; stroke-width: 2; stroke: #000000" cx="284.5" cy="201.8" rx="58.5" ry="18"/>
    <text font-size="12.8" style="fill: #000000;text-anchor:middle;font-family:monospace;font-style:normal;font-weight:normal" x="284.5" y="205">First_Name</text>
  </g>
  <g>
    <ellipse style="fill: #ffffff" cx="521.9" cy="105.2" rx="35.4" ry="18"/>
    <ellipse style="fill: none; fill-opacity:0; stroke-width: 2; stroke: #000000" cx="521.9" cy="105.2" rx="35.4" ry="18"/>
    <text font-size="12.8" style="fill: #000000;text-anchor:middle;font-family:monospace;font-style:normal;font-weight:normal" x="521.9" y="108.4">Type</text>
  </g>
  <g>
    <ellipse style="fill: #ffffff" cx="792.4" cy="384.6" rx="35.4" ry="18"/>
    <ellipse style="fill: none; fill-opacity:0; stroke-width: 2; stroke: #000000" cx="792.4" cy="384.6" rx="35.4" ry="18"/>
    <text font-size="12.8" style="fill: #000000;text-anchor:middle;font-family:monospace;font-style:normal;font-weight:normal" x="792.4" y="387.8">City</text>
  </g>
  <g>
    <rect style="fill: #ffffff" x="605.5" y="393.4" width="89.6" height="36"/>
    <rect style="fill: none; fill-opacity:0; stroke-width: 2; stroke: #000000" x="605.5" y="393.4" width="89.6" height="36"/>
    <text font-size="12.8" style="fill: #000000;text-anchor:middle;font-family:monospace;font-style:normal;font-weight:normal" x="650.3" y="414.6">Location</text>
  </g>
  <line style="fill: none; fill-opacity:0; stroke-width: 2; stroke: #000000" x1="548.1" y1="226" x2="650.3" y2="393.4"/>
  <g>
    <ellipse style="fill: #ffffff" cx="500.95" cy="449.8" rx="46.95" ry="18"/>
    <ellipse style="fill: none; fill-opacity:0; stroke-width: 2; stroke: #000000" cx="500.95" cy="449.8" rx="46.95" ry="18"/>
    <text font-size="12.8" style="fill: #000000;text-anchor:middle;font-family:monospace;font-style:normal;font-weight:normal" x="500.95" y="453">Room_No</text>
  </g>
  <g>
    <ellipse style="fill: #ffffff" cx="579.6" cy="509.4" rx="43.1" ry="18"/>
    <ellipse style="fill: none; fill-opacity:0; stroke-width: 2; stroke: #000000" cx="579.6" cy="509.4" rx="43.1" ry="18"/>
    <text font-size="12.8" style="fill: #000000;text-anchor:middle;font-family:monospace;font-style:normal;font-weight:normal" x="579.6" y="512.6">Street</text>
  </g>
  <g>
    <ellipse style="fill: #ffffff" cx="769.35" cy="492.8" rx="62.35" ry="18"/>
    <ellipse style="fill: none; fill-opacity:0; stroke-width: 2; stroke: #000000" cx="769.35" cy="492.8" rx="62.35" ry="18"/>
    <text font-size="12.8" style="fill: #000000;text-anchor:middle;font-family:monospace;font-style:normal;font-weight:normal" x="769.35" y="496">Postal_Code</text>
  </g>
  <g>
    <ellipse style="fill: #ffffff" cx="416.15" cy="114.4" rx="54.65" ry="18"/>
    <ellipse style="fill: none; fill-opacity:0; stroke-width: 2; stroke: #000000" cx="416.15" cy="114.4" rx="54.65" ry="18"/>
    <text font-size="12.8" style="fill: #000000;text-anchor:middle;font-family:monospace;font-style:normal;font-weight:normal" x="416.15" y="117.6">Id_Device</text>
    <line style="fill: none; fill-opacity:0; stroke-width: 2; stroke: #000000" x1="381.5" y1="122.4" x2="450.8" y2="122.4"/>
  </g>
  <g>
    <ellipse style="fill: #ffffff" cx="657.1" cy="105.4" rx="81.6" ry="18"/>
    <ellipse style="fill: none; fill-opacity:0; stroke-width: 2; stroke: #000000" cx="657.1" cy="105.4" rx="81.6" ry="18"/>
    <text font-size="12.8" style="fill: #000000;text-anchor:middle;font-family:monospace;font-style:normal;font-weight:normal" x="657.1" y="108.6">Last_Maintenance</text>
  </g>
  <line style="fill: none; fill-opacity:0; stroke-width: 2; stroke: #000000" x1="211" y1="267" x2="131.15" y2="242.4"/>
  <line style="fill: none; fill-opacity:0; stroke-width: 2; stroke: #000000" x1="240.4" y1="303" x2="157.35" y2="351"/>
  <line style="fill: none; fill-opacity:0; stroke-width: 2; stroke: #000000" x1="284.5" y1="219.8" x2="240.4" y2="267"/>
  <line style="fill: none; fill-opacity:0; stroke-width: 2; stroke: #000000" x1="657.1" y1="123.4" x2="585.2" y2="190"/>
  <line style="fill: none; fill-opacity:0; stroke-width: 2; stroke: #000000" x1="521.9" y1="123.2" x2="548.1" y2="190"/>
  <line style="fill: none; fill-opacity:0; stroke-width: 2; stroke: #000000" x1="377.506" y1="127.128" x2="511" y2="208"/>
  <line style="fill: none; fill-opacity:0; stroke-width: 2; stroke: #000000" x1="757" y1="384.6" x2="695.1" y2="393.4"/>
  <line style="fill: none; fill-opacity:0; stroke-width: 2; stroke: #000000" x1="725.262" y1="480.072" x2="695.1" y2="429.4"/>
  <line style="fill: none; fill-opacity:0; stroke-width: 2; stroke: #000000" x1="579.6" y1="491.4" x2="650.3" y2="429.4"/>
  <line style="fill: none; fill-opacity:0; stroke-width: 2; stroke: #000000" x1="605.5" y1="411.4" x2="547.9" y2="449.8"/>
  <g>
    <ellipse style="fill: #ffffff" cx="535.85" cy="351.4" rx="62.35" ry="18"/>
    <ellipse style="fill: none; fill-opacity:0; stroke-width: 2; stroke: #000000" cx="535.85" cy="351.4" rx="62.35" ry="18"/>
    <text font-size="12.8" style="fill: #000000;text-anchor:middle;font-family:monospace;font-style:normal;font-weight:normal" x="535.85" y="354.6">Id_Location</text>
    <line style="fill: none; fill-opacity:0; stroke-width: 2; stroke: #000000" x1="493.5" y1="359.4" x2="578.2" y2="359.4"/>
  </g>
  <line style="fill: none; fill-opacity:0; stroke-width: 2; stroke: #000000" x1="579.938" y1="364.128" x2="605.5" y2="393.4"/>
  <g>
    <ellipse style="fill: #ffffff" cx="859.85" cy="197.4" rx="62.35" ry="18"/>
    <ellipse style="fill: none; fill-opacity:0; stroke-width: 2; stroke: #000000" cx="859.85" cy="197.4" rx="62.35" ry="18"/>
    <text font-size="12.8" style="fill: #000000;text-anchor:middle;font-family:monospace;font-style:normal;font-weight:normal" x="859.85" y="200.6">Id_Location</text>
  </g>
  <line style="fill: none; fill-opacity:0; stroke-width: 2; stroke: #000000" x1="797.5" y1="197.4" x2="585.2" y2="208"/>
  <g>
    <ellipse style="fill: #ffffff" cx="816.1" cy="135.4" rx="81.6" ry="18"/>
    <ellipse style="fill: none; fill-opacity:0; stroke-width: 2; stroke: #000000" cx="816.1" cy="135.4" rx="81.6" ry="18"/>
    <text font-size="12.8" style="fill: #000000;text-anchor:middle;font-family:monospace;font-style:normal;font-weight:normal" x="816.1" y="138.6">Next_Maintenance</text>
  </g>
  <line style="fill: none; fill-opacity:0; stroke-width: 2; stroke: #000000" x1="758.4" y1="148.128" x2="585.2" y2="208"/>
  <g>
    <ellipse style="fill: #ffffff" cx="771.18" cy="262.4" rx="62.35" ry="18"/>
    <ellipse style="fill: none; fill-opacity:0; stroke-width: 2; stroke: #000000" cx="771.18" cy="262.4" rx="62.35" ry="18"/>
    <text font-size="12.8" style="fill: #000000;text-anchor:middle;font-family:monospace;font-style:normal;font-weight:normal" x="771.18" y="265.6">Employee_No</text>
  </g>
  <line style="fill: none; fill-opacity:0; stroke-width: 2; stroke: #000000" x1="708.83" y1="262.4" x2="585.2" y2="226"/>
</svg>
